# xmcd
#
# Track frame offsets:
#	150
#	16497
#	35340
#	58530
#	88282
#	113385
#	131627
#	146295
#	167482
#	183512
#	196627
#	212727
#	229992
#
# Disc length: 3694 seconds
#
# Revision: 0
# Processed by: cddbd v1.5PL3 Copyright (c) Steve Scherf et al.
# Submitted via: dBpowerAMP V4.0
#
DISCID=a90e6c0d
DTITLE=Smoky Greenwell - Premium Smoke
DYEAR=2001
DGENRE=Blues
TTITLE0=Back To The Boogie
TTITLE1=Soul Serenade
TTITLE2=River Walk
TTITLE3=Going Uptown
TTITLE4=So Long Storyville
TTITLE5=Preservation Harp
TTITLE6=Smoke Alarm
TTITLE7=Space Stroll
TTITLE8=MudBug Rag
TTITLE9=Blowout
TTITLE10=Wake Up Call
TTITLE11=Smoky Side
TTITLE12=Baby Where Did You Sleep Last Night
EXTD=
EXTT0=
EXTT1=
EXTT2=
EXTT3=
EXTT4=
EXTT5=
EXTT6=
EXTT7=
EXTT8=
EXTT9=
EXTT10=
EXTT11=
EXTT12=
PLAYORDER=
